<svg width="142" height="137" viewBox="0 0 142 137" fill="none" xmlns="http://www.w3.org/2000/svg">
<path d="M8.76964 102.433C7.38478 104.689 5.81202 107.333 4.59058 109.414C3.41407 111.421 4.04726 114 6.02853 115.222L33.7827 132.36C35.817 133.615 38.4805 132.969 39.6938 130.909C40.7968 129.041 42.2266 126.638 43.7871 124.055C54.7884 105.89 65.8508 108.106 85.782 117.584L113.307 130.676C115.477 131.71 118.071 130.745 119.047 128.546L132.266 98.6845C133.206 96.559 132.283 94.078 130.183 93.0889C124.37 90.3545 112.817 84.8979 102.474 79.8868C64.8867 61.6778 33.0841 62.8835 8.76964 102.433Z" fill="url(#paint0_linear_1609_135)"/>
<path d="M133.23 34.5674C134.615 32.3112 136.188 29.6667 137.409 27.5862C138.586 25.5794 137.953 23.0002 135.971 21.7781L108.217 4.64004C106.183 3.38523 103.519 4.03103 102.306 6.09104C101.203 7.95895 99.7735 10.3623 98.213 12.9455C87.2118 31.1095 76.1494 28.8942 56.2182 19.4157L28.6929 6.32402C26.5237 5.28993 23.9297 6.2545 22.9533 8.45348L9.73398 38.3155C8.79441 40.4409 9.71764 42.9219 11.8174 43.911C17.6305 46.6454 29.1831 52.102 39.5266 57.1131C77.1094 75.3222 108.916 74.1205 133.23 34.5674Z" fill="url(#paint1_linear_1609_135)"/>
<defs>
<linearGradient id="paint0_linear_1609_135" x1="131.445" y1="141.156" x2="47.4328" y2="92.9079" gradientUnits="userSpaceOnUse">
<stop stop-color="#0055CC"/>
<stop offset="1" stop-color="#1D7AFC"/>
</linearGradient>
<linearGradient id="paint1_linear_1609_135" x1="10.551" y1="-4.15589" x2="94.5633" y2="44.092" gradientUnits="userSpaceOnUse">
<stop stop-color="#0055CC"/>
<stop offset="1" stop-color="#1D7AFC"/>
</linearGradient>
</defs>
</svg>
