<svg width="152" height="137" viewBox="0 0 152 137" fill="none" xmlns="http://www.w3.org/2000/svg">
<path d="M13.8149 8.50036C13.1932 8.49231 12.5773 8.62093 12.0104 8.87718C11.4435 9.13343 10.9394 9.51111 10.5334 9.98368C10.1275 10.4563 9.8295 11.0123 9.66046 11.6127C9.49143 12.2132 9.45541 12.8435 9.55494 13.4594L27.6386 123.626C27.8639 124.974 28.5553 126.2 29.5915 127.087C30.6276 127.974 31.9422 128.467 33.3043 128.478H120.059C121.08 128.492 122.072 128.136 122.854 127.477C123.636 126.818 124.156 125.899 124.319 124.887L142.445 13.5021C142.545 12.8862 142.509 12.2559 142.34 11.6555C142.17 11.055 141.873 10.499 141.467 10.0264C141.061 9.55386 140.556 9.17618 139.99 8.91993C139.423 8.66368 138.807 8.53506 138.185 8.54311L13.8149 8.50036ZM89.9621 88.1223H62.2722L54.7746 48.835H96.6716L89.9621 88.1223Z" fill="#2684FF"/>
<path d="M136.652 48.835H96.6716L89.9621 88.1223H62.2722L29.5769 127.089C30.6132 127.988 31.9344 128.488 33.3044 128.5H120.08C121.101 128.513 122.093 128.158 122.875 127.498C123.657 126.839 124.177 125.92 124.34 124.909L136.652 48.835Z" fill="url(#paint0_linear_1609_52)"/>
<defs>
<linearGradient id="paint0_linear_1609_52" x1="145.896" y1="59.8217" x2="79.6473" y2="111.366" gradientUnits="userSpaceOnUse">
<stop offset="0.18" stop-color="#0052CC"/>
<stop offset="1" stop-color="#2684FF"/>
</linearGradient>
</defs>
</svg>
