<?xml version="1.0" encoding="UTF-8"?>
<svg width="796" height="852" viewBox="0 0 796 852" fill="none" xmlns="http://www.w3.org/2000/svg">
<path fill-rule="evenodd" clip-rule="evenodd" d="M545 116L400 367L256 116H25L400 767L776 116H545Z" fill="#34495E"/>
<path d="M17 0H779L397 662L17 0Z" fill="#563D7C"/>
<path fill-rule="evenodd" clip-rule="evenodd" d="M299 87H431C456 87 475 92 490 103C505 115 512 131 512 154C512 168 509 180 502 189C495 199 486 207 473 212V213C490 216 503 224 511 237C520 249 524 264 524 283C524 294 522 304 518 313C515 322 509 330 501 337C492 343 482 349 469 353C457 357 441 359 424 359H299V87ZM347 201H424C436 201 445 197 453 191C461 184 464 175 464 163C464 149 461 139 454 134C447 128 437 125 424 125H347V201ZM347 320H431C445 320 457 316 464 309C472 301 477 290 477 277C477 263 473 253 464 246C456 238 445 235 431 235H347V320Z" fill="white"/>
<path fill-rule="evenodd" clip-rule="evenodd" d="M637 162L398 576L159 162H0L398 852L796 162H637Z" fill="#41B883"/>
</svg>
