<svg width="336" height="336" viewBox="0 0 336 336" fill="none" xmlns="http://www.w3.org/2000/svg">
<g clip-path="url(#clip0_2038_848)">
<path d="M0 0H282.24C296.498 0 310.172 5.66398 320.254 15.7459C330.336 25.8279 336 39.502 336 53.76V282.24C336 296.498 330.336 310.172 320.254 320.254C310.172 330.336 296.498 336 282.24 336H53.76C39.502 336 25.8279 330.336 15.7459 320.254C5.66398 310.172 0 296.498 0 282.24L0 0Z" fill="#663399"/>
<path d="M120.322 309.12C98.7403 309.1 85.4246 296.947 85.68 274.583V218.004C85.68 206.667 88.9997 198.045 95.639 192.145C107.564 180.657 135.23 179.958 146.909 192.32C154.106 198.667 156.821 211.633 156.176 223.732H131.406C131.594 218.978 131.342 211.777 128.547 209.066C124.915 204.15 115.322 204.728 112.785 209.845C111.226 212.621 110.447 216.73 110.447 222.167V271.283C110.447 281.581 114.025 286.789 121.185 286.904C124.532 286.904 127.075 285.687 128.806 283.258C131.221 280.375 131.598 273.991 131.403 269.375H156.173C157.866 292.918 143.969 309.412 120.318 309.12H120.322ZM198.959 309.12C175.046 309.449 164.348 292.434 165.01 269.375H188.392C187.743 279.428 191.197 288.584 199.476 287.945C203.169 287.945 205.77 286.789 207.272 284.474C210.128 280.244 210.662 268.027 206.58 263.3C203.727 258.747 193.465 254.728 188.046 252.02C180.308 248.317 174.737 243.923 171.33 238.829C163.645 227.526 164.358 202.716 175.14 192.662C185.616 180.257 212.977 179.686 223.464 192.404C229.932 198.959 232.757 211.858 232.21 223.729H209.691C209.882 218.85 209.422 210.978 207.527 208.108C206.2 205.679 203.687 204.463 199.994 204.463C193.412 204.463 190.122 208.397 190.122 216.263C190.193 224.616 193.449 228.043 201.036 231.534C210.86 235.351 223.353 241.87 227.882 249.759C241.389 273.796 232.122 310.514 198.956 309.113L198.959 309.12ZM274.478 309.12C250.565 309.449 239.867 292.434 240.529 269.375H263.911C263.263 279.428 266.717 288.584 274.996 287.945C278.688 287.945 281.289 286.789 282.791 284.474C285.647 280.244 286.181 268.027 282.099 263.3C279.246 258.747 268.985 254.728 263.565 252.02C255.827 248.317 250.256 243.923 246.849 238.829C239.165 227.526 239.877 202.716 250.659 192.662C261.136 180.257 288.496 179.686 298.983 192.404C305.451 198.959 308.277 211.858 307.729 223.729H285.21C285.402 218.85 284.941 210.978 283.046 208.108C281.719 205.679 279.206 204.463 275.513 204.463C268.931 204.463 265.642 208.397 265.642 216.263C265.712 224.616 268.968 228.043 276.555 231.534C286.38 235.351 298.872 241.87 303.401 249.759C316.908 273.796 307.642 310.514 274.475 309.113L274.478 309.12Z" fill="white"/>
</g>
<defs>
<clipPath id="clip0_2038_848">
<rect width="336" height="336" fill="white"/>
</clipPath>
</defs>
</svg>
