<svg width="156" height="196" viewBox="0 0 156 196" fill="none" xmlns="http://www.w3.org/2000/svg">
<path d="M48.7239 189.774C56.8995 193.064 65.7691 195.017 75.0821 195.342C87.686 195.782 99.6714 193.176 110.386 188.226C97.5374 183.178 85.9007 175.796 75.9693 166.617C69.5316 176.925 60.0099 185.066 48.7239 189.774Z" fill="#FF9100"/>
<path d="M75.9674 166.62C53.2969 145.653 39.544 115.306 40.7063 82.0206C40.7441 80.9397 40.8011 79.8595 40.8678 78.7796C36.8076 77.7295 32.5688 77.0887 28.2066 76.9364C21.9626 76.7183 15.9158 77.4927 10.2071 79.1003C4.1553 89.7013 0.503257 101.865 0.0482973 114.893C-1.12585 148.517 19.2217 177.896 48.722 189.777C60.008 185.069 69.5294 176.937 75.9674 166.62Z" fill="#FFC400"/>
<path d="M75.9683 166.619C81.2391 158.184 84.4349 148.295 84.8069 137.641C85.7856 109.615 66.9449 85.506 40.8688 78.7785C40.8021 79.8584 40.745 80.9386 40.7073 82.0195C39.5449 115.305 53.2978 145.652 75.9683 166.619Z" fill="#FF9100"/>
<path d="M81.8909 0C67.0396 11.8978 55.3122 27.586 48.2169 45.6584C44.1547 56.0101 41.602 67.1295 40.8567 78.7854C66.9329 85.5129 85.7736 109.622 84.7949 137.648C84.4228 148.302 81.2177 158.181 75.9563 166.626C85.8874 175.814 97.5244 183.187 110.373 188.235C136.163 176.314 154.461 150.661 155.521 120.319C156.207 100.66 148.654 83.1392 137.981 68.35C126.71 52.709 81.8909 0 81.8909 0Z" fill="#DD2C00"/>
</svg>
