<svg width="157" height="157" viewBox="0 0 157 157" fill="none" xmlns="http://www.w3.org/2000/svg">
<g clip-path="url(#clip0_1621_37)">
<path d="M154.039 71.5051L85.4914 2.96107C81.5462 -0.986618 75.1435 -0.986618 71.1934 2.96107L56.9591 17.1953L75.0159 35.2522C79.212 33.8343 84.0238 34.7855 87.3687 38.1303C90.7294 41.4966 91.6739 46.3495 90.2216 50.5591L107.624 67.9615C111.834 66.5111 116.691 67.4494 120.054 70.8176C124.754 75.5153 124.754 83.1292 120.054 87.83C115.353 92.5314 107.739 92.5314 103.036 87.83C99.5012 84.2914 98.6279 79.0999 100.417 74.745L84.1888 58.5164L84.187 101.223C85.3634 101.805 86.4379 102.574 87.3687 103.499C92.0682 108.196 92.0682 115.811 87.3687 120.515C82.6679 125.214 75.0503 125.214 70.3562 120.515C65.6567 115.811 65.6567 108.197 70.3562 103.499C71.4825 102.373 72.8209 101.48 74.2941 100.874V57.7688C72.8187 57.1665 71.4796 56.2737 70.3562 55.1433C66.7955 51.5875 65.9394 46.363 67.7639 41.9909L49.964 24.1892L2.96215 71.188C-0.987383 75.1394 -0.987383 81.5426 2.96215 85.4909L71.511 154.036C75.4575 157.984 81.8589 157.984 85.8103 154.036L154.038 85.8092C157.987 81.8597 157.987 75.4528 154.039 71.5051Z" fill="#DE4C36"/>
</g>
<defs>
<clipPath id="clip0_1621_37">
<rect width="157" height="157" fill="white"/>
</clipPath>
</defs>
</svg>
