<svg width="149" height="147" viewBox="0 0 149 147" fill="none" xmlns="http://www.w3.org/2000/svg">
<path fill-rule="evenodd" clip-rule="evenodd" d="M140.62 108.387L148.355 108.43C148.355 108.43 133.974 127.932 132.799 129.522C132.418 130.036 131.838 130.591 131.545 131.279C130.802 133.009 130.04 136.804 130.04 136.804L122.962 136.839C122.962 136.839 124.063 132.884 124.018 130.777C123.978 128.937 123.039 127.099 122.513 125.253C121.981 123.385 121.258 119.729 121.258 119.729H128.534L129.538 123.747L140.62 108.387Z" class="white-on-dark" fill="#1A1918"/>
<path fill-rule="evenodd" clip-rule="evenodd" d="M125.737 112.397C127.159 113.263 128.032 118.041 128.032 118.041C128.032 118.041 120.59 118.152 116.54 118.152H113.04L108.79 136.839H102.29C102.29 136.839 106.335 116.531 107.29 112.849C107.6 111.657 109.41 111.861 112.467 111.861H117.35C120.502 111.861 124.187 111.455 125.737 112.397Z" class="white-on-dark" fill="#1A1918"/>
<path fill-rule="evenodd" clip-rule="evenodd" d="M95.2043 121.103C95.2043 121.103 95.4082 119.903 94.5121 118.513C93.747 117.328 93.0399 117.053 91.0262 116.99C85.3401 116.81 85.4506 121.04 85.4506 121.04L95.2043 121.103ZM101.371 116.26C102.204 119.276 100.616 126.366 100.616 126.366C100.616 126.366 92.3221 126.227 87.7791 126.366C86.3667 126.409 84.6756 126.212 84.2552 126.871C83.6636 127.796 84.4713 129.218 85.156 129.819C85.9442 130.512 87.4792 130.59 88.0307 130.661C91.718 131.131 99.4356 130.782 99.4356 130.782L98.0988 136.724C98.0988 136.724 87.1928 137.273 81.738 135.966C80.661 135.709 79.6515 135.189 78.9692 134.451C78.783 134.249 78.6217 133.973 78.4454 133.736C78.3047 133.546 77.8947 132.922 77.7106 132.429C76.4648 129.097 77.8567 122.712 79.2208 119.291C79.3793 118.895 79.5783 118.392 79.7876 117.965C80.0491 117.432 80.2705 116.831 80.4794 116.512C80.6201 116.292 80.7942 116.151 80.9403 115.944C81.1087 115.699 81.3049 115.461 81.4864 115.249C81.9896 114.663 82.561 114.248 83.2482 113.733C85.5209 112.025 89.634 110.699 94.575 111.206C96.4352 111.398 99.2445 112.065 100.616 113.986C100.983 114.499 101.165 115.517 101.371 116.26Z" class="white-on-dark" fill="#1A1918"/>
<path fill-rule="evenodd" clip-rule="evenodd" d="M71.5519 111.812L77.9032 111.774C77.9032 111.774 74.3638 128.595 72.5599 136.797H65.2536C60.1471 136.797 55.5997 137.43 53.665 133.768C51.7882 130.213 53.5793 124.365 54.4207 120.392C55.0154 117.581 56.2677 111.835 56.2677 111.835L62.848 111.774C62.848 111.774 60.9886 120.721 60.2151 125.188C59.938 126.788 59.3665 128.294 59.9633 129.478C60.5302 130.604 61.3237 130.684 63.7421 130.74C64.5082 130.758 67.0173 130.74 67.0173 130.74L71.5519 111.812Z" class="white-on-dark" fill="#1A1918"/>
<path fill-rule="evenodd" clip-rule="evenodd" d="M41.8708 123.739C42.5359 121.38 43.5058 118.822 43.3824 116.697C43.249 114.423 41.3395 112.353 40.1075 111.918C36.3966 110.61 32.9226 112.438 31.5419 113.93C29.7554 115.862 29.1508 118.118 28.5185 121.224C28.0476 123.531 27.6621 125.965 28.5185 127.764C30.035 130.943 34.7638 130.249 39.8553 130.279C40.6111 128.257 41.236 125.986 41.8708 123.739ZM50.6886 114.433C51.4141 119.7 48.6304 125.513 46.7131 130.568C48.6681 130.745 50.3813 130.541 50.5047 130.687C50.6331 130.876 49.1945 136.721 48.693 136.736C47.1413 136.776 41.9996 136.819 39.8553 136.819C32.8592 136.819 26.3141 137.274 22.9763 133.801C21.6209 132.39 20.6838 129.97 20.4569 128.267C20.0788 125.425 20.5525 122.296 21.2126 119.715C21.8098 117.386 22.5755 115.187 23.7321 113.175C26.6719 108.052 31.7862 104.249 40.3593 105.126C42.022 105.298 44.4102 106.024 45.9018 106.887C46.005 106.948 46.3656 107.234 46.4485 107.285C48.464 108.565 50.3006 111.621 50.6886 114.433Z" class="white-on-dark" fill="#1A1918"/>
<path fill-rule="evenodd" clip-rule="evenodd" d="M19.6452 111.805C19.233 113.748 18.8208 115.951 18.3864 117.871H11.5161C12.0485 115.742 12.4559 113.626 12.9883 111.774C15.1868 111.774 17.2308 111.805 19.6452 111.805Z" class="white-on-dark" fill="#1A1918"/>
<path fill-rule="evenodd" clip-rule="evenodd" d="M10.9076 119.226H17.6129C16.7364 124.189 15.0006 132.193 13.6395 137.765C12.7876 141.252 12.2189 143.797 9.91401 145.638C9.70785 145.803 9.589 145.725 9.41755 145.892C8.99262 146.306 7.02819 146.786 5.94062 146.908C4.17218 147.104 2.17304 146.933 0 146.888C0.568678 144.762 1.21204 142.21 1.71866 140.305C7.01592 140.96 7.1502 135.84 8.17572 130.908C8.76929 128.059 10.5675 120.369 10.9076 119.226Z" class="white-on-dark" fill="#1A1918"/>
<path fill-rule="evenodd" clip-rule="evenodd" d="M116.728 66.047L116.326 67.0887C109.474 80.4281 97.3365 88.6133 80.0226 88.9742C71.9287 89.1409 64.2163 87.0645 59.1787 84.8056C48.3061 79.921 39.1617 70.862 34.1672 61.183C27.0032 47.308 25.7114 28.007 40.6074 13.5905C40.837 13.5905 38.8007 16.7165 39.0302 16.7165L38.6203 18.0504C27.8859 51.6571 60.957 80.4566 93.1051 77.1629C100.831 76.3714 110.684 72.14 116.728 66.047Z" fill="#21609B"/>
<path fill-rule="evenodd" clip-rule="evenodd" d="M97.2737 52.1504C105.362 52.2063 113.81 48.4262 118.812 43.1188C114.435 54.2288 101.763 61.3704 84.7679 59.0987C70.5388 57.1949 56.9836 42.8756 55.5869 28.5278C54.5658 18.0858 58.2057 11.8535 64.2026 4.29413C62.1183 8.24791 61.3395 11.2973 61.1453 13.2424C58.8668 35.8302 79.1889 52.0327 97.2737 52.1504Z" fill="#21609B"/>
<path fill-rule="evenodd" clip-rule="evenodd" d="M118 24.0954C116.742 26.9791 109.503 32.4257 106.306 33.1064C93.6475 35.8027 85.5399 29.8 81.2938 22.9694C80.6621 21.9483 79.4949 19.1627 79.286 18.4536C77.6392 12.8539 78.3964 4.38437 83.3094 0C81.8293 4.16858 81.6135 9.011 82.3923 12.1585C82.8641 14.0623 84.302 17.3845 85.7409 19.4746C88.3598 23.2823 90.0203 24.2072 93.3837 26.2287C94.8981 27.1389 96.5233 27.8687 97.2256 28.0698C100.414 29.0074 107.147 31.4811 118 24.0954Z" fill="#21609B"/>
</svg>
