<?xml version="1.0" encoding="UTF-8" standalone="no"?>
<svg width="614" height="800" viewBox="0 0 614 800" fill="none" xmlns="http://www.w3.org/2000/svg">
<path d="M613.075 263.386C613.075 216.288 600.74 172.133 579.013 133.866C521.402 74.5721 396.086 60.8351 364.968 133.585C333.008 208.158 418.654 291.141 456.081 284.552C503.74 276.142 447.67 166.806 447.67 166.806C520.56 304.177 503.74 262.125 371.976 388.281C240.213 514.437 105.646 780.627 86.022 791.841C85.181 792.402 84.34 792.823 83.358 793.243H600.179C609.29 793.243 615.178 783.571 611.113 775.441L475.985 507.989C473.042 502.242 475.144 495.093 480.751 491.869C559.809 446.453 613.075 361.227 613.075 263.386Z" fill="url(#paint0_linear_1585_39)"/>
<path d="M613.075 263.386C613.075 216.288 600.74 172.133 579.013 133.866C521.402 74.5721 396.086 60.8351 364.968 133.585C333.008 208.158 418.654 291.141 456.081 284.552C503.74 276.142 447.67 166.806 447.67 166.806C520.56 304.177 503.74 262.125 371.976 388.281C240.213 514.437 105.646 780.627 86.022 791.841C85.181 792.402 84.34 792.823 83.358 793.243H600.179C609.29 793.243 615.178 783.571 611.113 775.441L475.985 507.989C473.042 502.242 475.144 495.093 480.751 491.869C559.809 446.453 613.075 361.227 613.075 263.386Z" fill="url(#paint1_linear_1585_39)"/>
<path d="M86.022 791.843C105.647 780.629 240.214 514.299 371.977 388.143C503.74 261.986 520.561 304.038 447.671 166.668C447.671 166.668 168.725 557.753 67.8 751.193" fill="url(#paint2_linear_1585_39)"/>
<path d="M125.271 441.407C313.665 95.0378 338.335 60.1345 436.457 60.1345C488.041 60.1345 540.045 83.4034 573.687 124.755C527.85 50.8831 446.689 1.4017 353.754 0H33.738C27.009 0 21.542 5.4668 21.542 12.1951V657.275C40.606 608.074 72.986 537.707 125.271 441.407Z" fill="url(#paint3_linear_1585_39)"/>
<path d="M371.977 388.142C240.213 514.299 105.646 780.629 86.022 791.843C66.398 803.057 33.457 804.458 15.935 784.834C-2.70789 763.948 -31.7238 730.166 125.271 441.408C313.664 95.039 338.335 60.1357 436.457 60.1357C488.041 60.1357 540.045 83.4046 573.687 124.756C575.509 127.7 577.331 130.783 579.154 133.867C521.542 74.5737 396.227 60.8366 365.108 133.587C333.148 208.159 418.795 291.142 456.221 284.554C503.88 276.144 447.811 166.808 447.811 166.808C520.561 304.038 503.74 261.986 371.977 388.142Z" fill="url(#paint4_linear_1585_39)"/>
<path opacity="0.3" d="M140.69 456.828C329.083 110.458 353.754 75.5549 451.876 75.5549C494.348 75.5549 537.101 91.3945 569.622 119.99C535.98 81.5823 486.078 60.1357 436.457 60.1357C338.335 60.1357 313.664 95.039 125.271 441.408C-31.7238 730.166 -2.70789 763.948 15.935 784.834C18.599 787.778 21.682 790.301 24.906 792.404C8.50601 768.574 1.21701 713.205 140.69 456.828Z" fill="url(#paint5_linear_1585_39)"/>
<defs>
<linearGradient id="paint0_linear_1585_39" x1="225.451" y1="426.059" x2="441.319" y2="476.522" gradientUnits="userSpaceOnUse">
<stop stop-color="#FF6533"/>
<stop offset="0.157" stop-color="#FF5633"/>
<stop offset="0.434" stop-color="#FF4333"/>
<stop offset="0.714" stop-color="#FF3733"/>
<stop offset="1" stop-color="#FF3333"/>
</linearGradient>
<linearGradient id="paint1_linear_1585_39" x1="191.688" y1="354.502" x2="578.569" y2="654.474" gradientUnits="userSpaceOnUse">
<stop stop-color="#BF3338"/>
<stop offset="1" stop-color="#FF3333"/>
</linearGradient>
<linearGradient id="paint2_linear_1585_39" x1="204.309" y1="413.593" x2="260.379" y2="472.466" gradientUnits="userSpaceOnUse">
<stop stop-color="#FF6533"/>
<stop offset="0.157" stop-color="#FF5633"/>
<stop offset="0.434" stop-color="#FF4333"/>
<stop offset="0.714" stop-color="#FF3733"/>
<stop offset="1" stop-color="#FF3333"/>
</linearGradient>
<linearGradient id="paint3_linear_1585_39" x1="306.251" y1="514.938" x2="289.43" y2="273.839" gradientUnits="userSpaceOnUse">
<stop stop-color="#FF6533"/>
<stop offset="0.157" stop-color="#FF5633"/>
<stop offset="0.434" stop-color="#FF4333"/>
<stop offset="0.714" stop-color="#FF3733"/>
<stop offset="1" stop-color="#FF3333"/>
</linearGradient>
<linearGradient id="paint4_linear_1585_39" x1="233.38" y1="409.461" x2="313.024" y2="463.62" gradientUnits="userSpaceOnUse">
<stop stop-color="#FBB040"/>
<stop offset="1" stop-color="#FB8840"/>
</linearGradient>
<linearGradient id="paint5_linear_1585_39" x1="314.972" y1="103.25" x2="233.671" y2="997.559" gradientUnits="userSpaceOnUse">
<stop stop-color="white"/>
<stop offset="1" stop-color="white" stop-opacity="0"/>
</linearGradient>
</defs>
</svg>
