<svg width="100" height="100" viewBox="0 0 100 100" fill="none" xmlns="http://www.w3.org/2000/svg">
<g clip-path="url(#clip0_1621_30)">
<path fill-rule="evenodd" clip-rule="evenodd" d="M36.5037 0.246277C35.195 0.247492 33.8993 0.506505 32.6906 1.00852C31.482 1.51054 30.3841 2.24573 29.4596 3.1721C28.5351 4.09848 27.8022 5.19789 27.3026 6.40756C26.8031 7.61723 26.5467 8.91345 26.5482 10.2222C26.5469 11.5308 26.8035 12.8268 27.3031 14.0363C27.8028 15.2457 28.5358 16.3449 29.4602 17.2711C30.3847 18.1973 31.4825 18.9323 32.691 19.4342C33.8996 19.9361 35.1951 20.1951 36.5037 20.1963H46.4593V10.2222C46.4607 8.91345 46.2044 7.61723 45.7048 6.40756C45.2053 5.19789 44.4723 4.09848 43.5478 3.1721C42.6234 2.24573 41.5254 1.51054 40.3168 1.00852C39.1082 0.506505 37.8125 0.247492 36.5037 0.246277ZM36.5037 26.8481H9.95556C8.64696 26.8493 7.35142 27.1083 6.1429 27.6102C4.93437 28.1121 3.83654 28.8471 2.91208 29.7733C1.98763 30.6995 1.25464 31.7987 0.754988 33.0081C0.255333 34.2176 -0.00121031 35.5136 6.19999e-06 36.8222C-0.00145367 38.131 0.25491 39.4272 0.754456 40.6368C1.254 41.8465 1.98695 42.9459 2.91143 43.8723C3.83591 44.7987 4.93383 45.5339 6.14247 46.0359C7.35111 46.5379 8.64681 46.7969 9.95556 46.7981H36.5037C37.8125 46.7969 39.1082 46.5379 40.3168 46.0359C41.5254 45.5339 42.6234 44.7987 43.5478 43.8723C44.4723 42.9459 45.2053 41.8465 45.7048 40.6368C46.2044 39.4272 46.4607 38.131 46.4593 36.8222C46.4605 35.5136 46.2039 34.2176 45.7043 33.0081C45.2046 31.7987 44.4716 30.6995 43.5472 29.7733C42.6227 28.8471 41.5249 28.1121 40.3164 27.6102C39.1079 27.1083 37.8123 26.8493 36.5037 26.8481Z" fill="#44BEDF"/>
<path fill-rule="evenodd" clip-rule="evenodd" d="M99.5556 36.8222C99.5568 35.5136 99.3003 34.2176 98.8006 33.0081C98.3009 31.7987 97.568 30.6995 96.6435 29.7733C95.719 28.8471 94.6212 28.1121 93.4127 27.6102C92.2042 27.1083 90.9086 26.8493 89.6 26.8481C88.2914 26.8493 86.9959 27.1083 85.7874 27.6102C84.5788 28.1121 83.481 28.8471 82.5565 29.7733C81.6321 30.6995 80.8991 31.7987 80.3995 33.0081C79.8998 34.2176 79.6433 35.5136 79.6445 36.8222V46.7981H89.6C90.9088 46.7969 92.2045 46.5379 93.4131 46.0359C94.6218 45.5339 95.7197 44.7987 96.6442 43.8723C97.5686 42.9459 98.3016 41.8465 98.8011 40.6368C99.3007 39.4272 99.557 38.131 99.5556 36.8222ZM73.0074 36.8222V10.2222C73.0089 8.91345 72.7525 7.61723 72.253 6.40756C71.7534 5.19789 71.0205 4.09848 70.096 3.1721C69.1715 2.24573 68.0736 1.51054 66.865 1.00852C65.6563 0.506505 64.3606 0.247492 63.0519 0.246277C61.7431 0.247492 60.4474 0.506505 59.2388 1.00852C58.0301 1.51054 56.9322 2.24573 56.0077 3.1721C55.0833 4.09848 54.3503 5.19789 53.8508 6.40756C53.3512 7.61723 53.0949 8.91345 53.0963 10.2222V36.8222C53.0949 38.131 53.3512 39.4272 53.8508 40.6368C54.3503 41.8465 55.0833 42.9459 56.0077 43.8723C56.9322 44.7987 58.0301 45.5339 59.2388 46.0359C60.4474 46.5379 61.7431 46.7969 63.0519 46.7981C64.3606 46.7969 65.6563 46.5379 66.865 46.0359C68.0736 45.5339 69.1715 44.7987 70.096 43.8723C71.0205 42.9459 71.7534 41.8465 72.253 40.6368C72.7525 39.4272 73.0089 38.131 73.0074 36.8222Z" fill="#2EB67D"/>
<path fill-rule="evenodd" clip-rule="evenodd" d="M63.0519 100C64.3606 99.9988 65.6563 99.7397 66.865 99.2377C68.0736 98.7357 69.1715 98.0005 70.096 97.0741C71.0205 96.1478 71.7534 95.0484 72.253 93.8387C72.7525 92.629 73.0089 91.3328 73.0074 90.024C73.0086 88.7154 72.7521 87.4194 72.2525 86.21C71.7528 85.0005 71.0198 83.9013 70.0954 82.9751C69.1709 82.049 68.0731 81.3139 66.8645 80.812C65.656 80.3101 64.3605 80.0512 63.0519 80.05H53.0963V90.024C53.0949 91.3328 53.3512 92.629 53.8508 93.8387C54.3503 95.0484 55.0833 96.1478 56.0077 97.0741C56.9322 98.0005 58.0301 98.7357 59.2388 99.2377C60.4474 99.7397 61.7431 99.9988 63.0519 100ZM63.0519 73.3981H89.6C90.9086 73.3969 92.2042 73.138 93.4127 72.6361C94.6212 72.1342 95.719 71.3991 96.6435 70.473C97.568 69.5468 98.3009 68.4476 98.8006 67.2381C99.3003 66.0287 99.5568 64.7326 99.5556 63.424C99.557 62.1153 99.3007 60.8191 98.8011 59.6094C98.3016 58.3997 97.5686 57.3003 96.6442 56.3739C95.7197 55.4476 94.6218 54.7124 93.4131 54.2104C92.2045 53.7083 90.9088 53.4493 89.6 53.4481H63.0519C61.7431 53.4493 60.4474 53.7083 59.2388 54.2104C58.0301 54.7124 56.9322 55.4476 56.0077 56.3739C55.0833 57.3003 54.3503 58.3997 53.8508 59.6094C53.3512 60.8191 53.0949 62.1153 53.0963 63.424C53.0951 64.7326 53.3516 66.0287 53.8513 67.2381C54.351 68.4476 55.0839 69.5468 56.0084 70.473C56.9329 71.3991 58.0307 72.1342 59.2392 72.6361C60.4477 73.138 61.7433 73.3969 63.0519 73.3981Z" fill="#ECB22E"/>
<path fill-rule="evenodd" clip-rule="evenodd" d="M8.43794e-06 63.424C-0.00120807 64.7326 0.255335 66.0287 0.75499 67.2381C1.25465 68.4476 1.98763 69.5468 2.91209 70.473C3.83655 71.3991 4.93438 72.1342 6.1429 72.6361C7.35142 73.138 8.64697 73.3969 9.95556 73.3981C11.2642 73.3969 12.5597 73.138 13.7682 72.6361C14.9768 72.1342 16.0746 71.3991 16.999 70.473C17.9235 69.5468 18.6565 68.4476 19.1561 67.2381C19.6558 66.0287 19.9123 64.7326 19.9111 63.424V53.4481H9.95556C8.64665 53.4493 7.35081 53.7084 6.14204 54.2105C4.93328 54.7127 3.83528 55.448 2.91078 56.3746C1.98627 57.3012 1.25336 58.4008 0.753926 59.6107C0.254489 60.8206 -0.00169485 62.1151 8.43794e-06 63.424ZM26.5482 63.424V90.024C26.5467 91.3328 26.8031 92.629 27.3026 93.8387C27.8022 95.0484 28.5351 96.1478 29.4596 97.0741C30.3841 98.0005 31.482 98.7357 32.6906 99.2377C33.8993 99.7397 35.195 99.9988 36.5037 100C37.8125 99.9988 39.1082 99.7397 40.3168 99.2377C41.5254 98.7357 42.6234 98.0005 43.5478 97.0741C44.4723 96.1478 45.2053 95.0484 45.7048 93.8387C46.2044 92.629 46.4607 91.3328 46.4593 90.024V63.4259C46.4607 62.1171 46.2044 60.8209 45.7048 59.6113C45.2053 58.4016 44.4723 57.3022 43.5478 56.3758C42.6234 55.4494 41.5254 54.7142 40.3168 54.2122C39.1082 53.7102 37.8125 53.4512 36.5037 53.45C35.195 53.4512 33.8993 53.7102 32.6906 54.2122C31.482 54.7142 30.3841 55.4494 29.4596 56.3758C28.5351 57.3022 27.8022 58.4016 27.3026 59.6113C26.8031 60.8209 26.5467 62.1153 26.5482 63.424Z" fill="#E01E5A"/>
</g>
<defs>
<clipPath id="clip0_1621_30">
<rect width="100" height="100" fill="white"/>
</clipPath>
</defs>
</svg>
