<svg width="123" height="123" viewBox="0 0 123 123" fill="none" xmlns="http://www.w3.org/2000/svg">
<path d="M101.065 0H21.935C9.82063 0 0 9.82063 0 21.935V101.065C0 113.179 9.82063 123 21.935 123H101.065C113.179 123 123 113.179 123 101.065V21.935C123 9.82063 113.179 0 101.065 0Z" fill="#4945FF"/>
<path fill-rule="evenodd" clip-rule="evenodd" d="M85.2829 37.1041H43.31V58.0698H64.3176C64.6559 58.0698 64.9306 58.3445 64.9306 58.6828V79.6892H85.8959V37.7171C85.8959 37.3786 85.6216 37.1041 85.2829 37.1041Z" fill="white"/>
<path opacity="0.42" fill-rule="evenodd" clip-rule="evenodd" d="M43.3139 37.1036V58.0686H23.0884C22.8153 58.0686 22.6785 57.7384 22.8717 57.5451L43.3139 37.1036Z" fill="white"/>
<path opacity="0.42" fill-rule="evenodd" clip-rule="evenodd" d="M65.456 100.13C65.2632 100.324 64.933 100.187 64.933 99.9135V79.6885H85.8983L65.456 100.13Z" fill="white"/>
<path opacity="0.42" d="M43.3189 58.0693H64.633C64.8022 58.0693 64.9396 58.2067 64.9396 58.3759V79.6896H43.932C43.5932 79.6896 43.3189 79.4149 43.3189 79.0761V58.0693Z" fill="white"/>
</svg>
