<?xml version="1.0" encoding="UTF-8"?>
<svg width="173" height="104" viewBox="0 0 173 104" fill="none" xmlns="http://www.w3.org/2000/svg">
<path fill-rule="evenodd" clip-rule="evenodd" d="M86.3652 0C63.3329 0 48.9415 11.4552 43.1809 34.3655C51.8185 22.9103 61.8945 18.6155 73.4089 21.4776C79.9785 23.1102 84.6763 27.8521 89.8717 33.1021C98.34 41.6511 108.142 51.5448 129.546 51.5448C152.575 51.5448 166.97 40.0897 172.727 17.1827C164.093 28.6379 154.017 32.9327 142.502 30.0673C135.93 28.4347 131.232 23.6927 126.036 18.4461C117.568 9.89032 107.77 0 86.3652 0ZM43.1809 51.5448C20.152 51.5448 5.75723 63 0 85.9103C8.63754 74.4552 18.7135 70.1603 30.2246 73.0224C36.7975 74.655 41.4954 79.3969 46.6908 84.6469C55.1591 93.196 64.9575 103.09 86.3652 103.09C109.394 103.09 123.789 91.6379 129.546 68.7276C120.909 80.1827 110.833 84.4776 99.3182 81.6155C92.7486 79.9795 88.0508 75.2376 82.8554 69.991C74.3871 61.4419 64.5852 51.5448 43.1809 51.5448Z" fill="#38BDF8"/>
</svg>

