<svg width="280" height="280" viewBox="0 0 280 280" fill="none" xmlns="http://www.w3.org/2000/svg">
<g clip-path="url(#clip0_1309_43)">
<path d="M280 27.343C280 12.252 267.748 0 252.656 0H27.346C12.254 0 0 12.252 0 27.343V252.654C0 267.746 12.254 280 27.346 280H252.657C267.748 280 280 267.746 280 252.654V27.343Z" fill="#134881"/>
<path d="M259.495 248.639C259.447 254.635 254.564 259.492 248.557 259.492H138.174L90.992 177.769H259.495V248.639ZM20.511 248.553V200.57L124.469 20.507H165.096L77.271 172.63L127.418 259.491H31.448C25.411 259.491 20.511 254.59 20.511 248.553ZM153.721 168.449H112.646C108.059 168.449 103.822 166.043 101.532 162.07C99.236 158.1 99.236 153.206 101.532 149.236L122.079 113.642L153.721 168.449ZM248.558 20.507C254.565 20.507 259.448 25.363 259.496 31.361V168.449H164.482L127.457 104.329L175.851 20.507H248.558Z" fill="url(#paint0_radial_1309_43)"/>
</g>
<defs>
<radialGradient id="paint0_radial_1309_43" cx="0" cy="0" r="1" gradientUnits="userSpaceOnUse" gradientTransform="translate(203.277 -24.5578) scale(283.88)">
<stop stop-color="#6BE1FB"/>
<stop offset="1" stop-color="#38BDFA"/>
</radialGradient>
<clipPath id="clip0_1309_43">
<rect width="280" height="280" fill="white"/>
</clipPath>
</defs>
</svg>
