<?xml version="1.0" standalone="no"?>
<!DOCTYPE svg PUBLIC "-//W3C//DTD SVG 20010904//EN"
 "http://www.w3.org/TR/2001/REC-SVG-20010904/DTD/svg10.dtd">
<svg version="1.0" xmlns="http://www.w3.org/2000/svg"
 width="800.000000pt" height="800.000000pt" viewBox="0 0 800.000000 800.000000"
 preserveAspectRatio="xMidYMid meet">
<metadata>
Created by potrace 1.11, written by Peter Selinger 2001-2013
</metadata>
<g transform="translate(0.000000,800.000000) scale(0.100000,-0.100000)"
fill="#000000" stroke="none">
<path d="M832 3999 l0 -2168 219 0 219 0 2 1761 3 1761 145 -237 c80 -131 151
-244 158 -251 6 -7 12 -16 12 -19 0 -3 24 -43 53 -89 28 -45 57 -92 64 -102
26 -43 93 -152 443 -715 199 -322 376 -607 392 -635 17 -27 43 -68 59 -92 16
-23 29 -44 29 -48 0 -3 9 -18 19 -33 11 -15 108 -171 216 -347 109 -176 212
-342 230 -370 17 -27 56 -90 87 -140 30 -49 73 -118 94 -153 44 -70 57 -93
129 -210 l49 -81 1276 3 c701 1 1286 5 1300 9 14 3 50 8 80 11 83 7 205 34
302 66 174 58 307 140 420 258 279 292 382 662 313 1127 -9 63 -63 215 -102
285 -77 143 -195 270 -334 363 -117 77 -278 149 -351 156 -12 1 -10 21 2 21
17 0 178 81 191 96 6 8 16 14 21 14 32 0 189 147 263 245 41 54 130 215 120
215 -2 0 2 15 10 34 70 167 65 467 -13 701 -83 252 -258 462 -479 576 -75 38
-256 102 -318 112 -16 3 -59 10 -95 16 -145 25 -302 28 -1422 29 -1083 0
-1167 -1 -1172 -16 -2 -9 -4 -486 -4 -1060 1 -573 -1 -1044 -3 -1047 -3 -2
-68 98 -145 223 -159 260 -147 240 -197 323 -21 35 -52 87 -69 114 -123 198
-491 800 -505 825 -8 14 -98 162 -202 330 l-187 305 -222 1 c-122 1 -222 1
-222 -1 0 -2 59 -101 131 -222 73 -120 140 -231 149 -248 10 -16 128 -214 264
-439 135 -225 246 -411 246 -413 0 -2 11 -19 25 -37 14 -18 25 -36 25 -40 0
-4 15 -30 33 -59 19 -29 45 -72 59 -97 14 -25 117 -196 228 -380 112 -184 211
-349 221 -366 9 -18 40 -69 68 -114 28 -45 51 -83 51 -84 0 -1 45 -76 100
-167 55 -90 111 -184 126 -209 l26 -45 1 -318 c0 -174 -2 -319 -4 -322 -3 -2
-39 53 -81 123 -42 70 -125 206 -184 302 -59 96 -125 206 -148 243 -61 101
-125 207 -176 289 -24 40 -148 242 -273 448 -126 206 -253 413 -282 460 -29
47 -171 279 -315 515 -145 237 -279 456 -299 488 -20 31 -40 65 -46 75 -5 9
-48 79 -95 155 -47 75 -89 145 -95 155 -35 62 -171 280 -183 294 -13 16 -38
17 -233 17 l-217 -1 0 -2169z m3415 3 c1 -974 -2 -1773 -5 -1773 -4 -1 -82 -2
-174 -3 l-168 -1 0 1775 0 1775 173 0 172 0 2 -1773z m1728 1754 c282 -47 460
-156 554 -342 47 -94 72 -195 76 -319 8 -242 -50 -407 -195 -555 -109 -110
-228 -176 -395 -219 -165 -42 -267 -48 -813 -47 l-517 1 0 745 c-1 410 3 747
7 750 4 3 272 5 595 4 497 -1 604 -4 688 -18z m-155 -1870 c517 -31 832 -246
916 -626 4 -19 8 -37 9 -40 6 -23 16 -157 17 -205 1 -199 -65 -399 -179 -540
-86 -107 -277 -209 -433 -231 -25 -3 -70 -10 -100 -14 -30 -5 -350 -8 -710 -7
l-655 2 0 830 0 830 95 5 c117 6 924 3 1040 -4z"/>
</g>
</svg>
