<?xml version="1.0" encoding="UTF-8" standalone="no"?>
<!DOCTYPE svg PUBLIC "-//W3C//DTD SVG 1.1//EN" "http://www.w3.org/Graphics/SVG/1.1/DTD/svg11.dtd">
<svg width="100%" height="100%" viewBox="0 0 99 68" version="1.1" xmlns="http://www.w3.org/2000/svg" xmlns:xlink="http://www.w3.org/1999/xlink" xml:space="preserve" xmlns:serif="http://www.serif.com/" style="fill-rule:evenodd;clip-rule:evenodd;stroke-linejoin:round;stroke-miterlimit:2;">
    <g>
        <path d="M89.5,58.2C87.3,60.5 83.7,61.7 78.6,61.7L60.2,61.7L60.2,35.5L75.4,35.5C86.9,35.5 92.7,40.1 92.7,49.3C92.7,52.9 91.6,55.8 89.5,58.2M60.2,6.1L76.5,6.1C85.7,6.1 90.3,9.9 90.3,17.5C90.3,21.2 88.9,24.2 86.2,26.4C83.5,28.6 79.5,29.6 74.2,29.6L60.2,29.6L60.2,6.1ZM53.4,61.6L47.9,61.6L47.9,6.1L53.4,6.1L53.4,61.6ZM95.4,37.8C93,34.9 89.8,33 85.9,32C89.2,30.8 91.8,28.9 93.7,26.4C95.6,23.9 96.6,21 96.6,17.6C96.6,12.6 95,8.4 91.7,5C88.4,1.7 83.2,0 75.9,0L41.1,0L41.1,33.5L20.6,0L13.7,0L41.1,45.6L41.1,56C40.3,54.5 6.9,0 6.9,0L0,0L0,67.7L6.8,67.7L6.8,12.5C7,12.8 41,67.7 41,67.7L77.4,67.7C85,67.7 90.5,65.9 93.9,62.2C97.3,58.5 99,54.1 99,48.8C99,44.3 97.8,40.7 95.4,37.8" style="fill:rgb(104,9,9);fill-rule:nonzero;"/>
    </g>
</svg>
