<svg width="280" height="280" viewBox="0 0 280 280" fill="none" xmlns="http://www.w3.org/2000/svg">
<g clip-path="url(#clip0_1309_55)">
<path fill-rule="evenodd" clip-rule="evenodd" d="M280 27.3437C280 12.2522 267.748 0 252.656 0H27.3438C12.2522 0 0 12.2522 0 27.3437V252.656C0 267.747 12.2522 280 27.3438 280H252.656C267.748 280 280 267.747 280 252.656V27.3437Z" fill="#891B26"/>
<path fill-rule="evenodd" clip-rule="evenodd" d="M127.462 259.492L56.9697 137.444L20.5095 200.568V248.554C20.5095 254.591 25.4095 259.492 31.447 259.492H127.462ZM178.865 259.492H138.222C138.222 259.492 85.5713 168.304 67.9318 137.797C64.4728 131.814 64.4728 124.441 67.9291 118.458C74.3084 107.42 82.6729 92.9437 82.6729 92.9437L178.865 259.492ZM230.269 259.492H189.625L88.6474 82.5976L108.373 48.4481L230.269 259.492ZM259.494 221.095V248.554C259.494 254.591 254.594 259.492 248.557 259.492H241.029L113.752 39.1346L124.512 20.5078H143.638L259.494 221.095ZM248.557 20.5078H154.396L259.494 202.468V31.4452C259.494 25.4086 254.594 20.5078 248.557 20.5078Z" fill="url(#paint0_radial_1309_55)"/>
</g>
<defs>
<radialGradient id="paint0_radial_1309_55" cx="0" cy="0" r="1" gradientUnits="userSpaceOnUse" gradientTransform="translate(203.152 -24.4071) scale(283.899 283.899)">
<stop stop-color="#FFAE71"/>
<stop offset="1" stop-color="#FF9350"/>
</radialGradient>
<clipPath id="clip0_1309_55">
<rect width="280" height="280" fill="white"/>
</clipPath>
</defs>
</svg>
