<svg width="280" height="280" viewBox="0 0 280 280" fill="none" xmlns="http://www.w3.org/2000/svg">
<g clip-path="url(#clip0_1309_47)">
<path fill-rule="evenodd" clip-rule="evenodd" d="M280 27.3437C280 12.2522 267.748 0 252.656 0H27.3438C12.2522 0 0 12.2522 0 27.3437V252.656C0 267.747 12.2522 280 27.3438 280H252.656C267.748 280 280 267.747 280 252.656V27.3437Z" fill="#4E3188"/>
<path fill-rule="evenodd" clip-rule="evenodd" d="M259.492 177.758V248.554C259.492 254.518 254.71 259.373 248.773 259.49L176.471 259.489L129.265 177.758H259.492ZM165.714 259.489H37.8052L101.795 148.825L165.714 259.489ZM27.5349 258.77C23.6658 257.287 20.8521 253.67 20.5377 249.365L20.5076 200.567L72.5072 110.537H113.151L27.5349 258.77ZM150.322 110.369C153.863 110.384 157.251 112.464 159.08 115.547C159.099 115.578 159.135 115.641 159.135 115.641L169.881 134.249C169.881 134.249 169.944 134.353 169.974 134.403C171.73 137.475 171.798 141.345 170.042 144.473C166.441 150.773 162.783 157.043 159.151 163.329C157.369 166.386 153.994 168.38 150.407 168.425C143.563 168.453 129.839 168.437 129.82 168.437C126.279 168.423 122.836 166.535 121.004 163.452C120.963 163.385 120.887 163.249 120.887 163.249C120.887 163.249 110.135 144.639 110.113 144.596C108.355 141.524 108.358 137.555 110.113 134.428C110.138 134.382 110.192 134.29 110.192 134.29C110.192 134.29 117.387 121.811 120.988 115.571C122.771 112.515 126.153 110.412 129.738 110.367C129.798 110.367 129.918 110.364 129.918 110.364L150.199 110.369H150.322ZM252.079 21.0891L166.972 168.437H259.492V31.4452C259.492 26.642 256.389 22.5577 252.079 21.0891ZM124.507 20.5078H241.656L178.3 130.199L119.727 28.7863L124.507 20.5078ZM150.806 101.224H77.8858L114.346 38.0996L150.806 101.224Z" fill="url(#paint0_radial_1309_47)"/>
</g>
<defs>
<radialGradient id="paint0_radial_1309_47" cx="0" cy="0" r="1" gradientUnits="userSpaceOnUse" gradientTransform="translate(203.172 -24.4067) scale(283.897 283.896)">
<stop stop-color="#F9A6FF"/>
<stop offset="1" stop-color="#EA73FF"/>
</radialGradient>
<clipPath id="clip0_1309_47">
<rect width="280" height="280" fill="white"/>
</clipPath>
</defs>
</svg>
