<svg width="134" height="129" viewBox="0 0 134 129" fill="none" xmlns="http://www.w3.org/2000/svg">
<path d="M4.76964 98.4325C3.38478 100.689 1.81202 103.333 0.590578 105.414C-0.585929 107.421 0.0472614 110 2.02853 111.222L29.7827 128.36C31.817 129.615 34.4805 128.969 35.6938 126.909C36.7968 125.041 38.2266 122.638 39.7871 120.055C50.7884 101.89 61.8508 104.106 81.782 113.584L109.307 126.676C111.477 127.71 114.071 126.745 115.047 124.546L128.266 94.6845C129.206 92.559 128.283 90.078 126.183 89.0889C120.37 86.3545 108.817 80.8979 98.4737 75.8868C60.8867 57.6778 29.0841 58.8835 4.76964 98.4325Z" fill="url(#paint0_linear_1609_135)"/>
<path d="M129.23 30.5674C130.615 28.3112 132.188 25.6667 133.409 23.5862C134.586 21.5794 133.953 19.0002 131.971 17.7781L104.217 0.640043C102.183 -0.614768 99.5195 0.0310306 98.3062 2.09104C97.2032 3.95895 95.7735 6.36226 94.213 8.94545C83.2118 27.1095 72.1494 24.8942 52.2182 15.4157L24.6929 2.32402C22.5237 1.28993 19.9297 2.2545 18.9533 4.45348L5.73398 34.3155C4.79441 36.4409 5.71764 38.9219 7.81738 39.911C13.6305 42.6454 25.1831 48.102 35.5266 53.1131C73.1094 71.3222 104.916 70.1205 129.23 30.5674Z" fill="url(#paint1_linear_1609_135)"/>
<defs>
<linearGradient id="paint0_linear_1609_135" x1="127.445" y1="137.156" x2="43.4328" y2="88.9079" gradientUnits="userSpaceOnUse">
<stop stop-color="#0055CC"/>
<stop offset="1" stop-color="#1D7AFC"/>
</linearGradient>
<linearGradient id="paint1_linear_1609_135" x1="6.551" y1="-8.15589" x2="90.5633" y2="40.092" gradientUnits="userSpaceOnUse">
<stop stop-color="#0055CC"/>
<stop offset="1" stop-color="#1D7AFC"/>
</linearGradient>
</defs>
</svg>
