<svg width="115" height="115" viewBox="0 0 115 115" fill="none" xmlns="http://www.w3.org/2000/svg">
<g clip-path="url(#clip0_1609_109)">
<mask id="mask0_1609_109" style="mask-type:luminance" maskUnits="userSpaceOnUse" x="0" y="0" width="115" height="115">
<path d="M114.989 0H0V114.989H114.989V0Z" fill="white"/>
</mask>
<g mask="url(#mask0_1609_109)">
<path d="M110.185 0H54.8127C54.8127 13.7125 66.0963 24.9962 79.8088 24.9962H90.009V34.8448C90.0183 48.637 101.197 59.8161 114.989 59.8253V4.80362C114.989 2.15142 112.839 0 110.185 0Z" fill="#2684FF"/>
<path d="M82.7868 27.5903H27.4146C27.4231 41.3829 38.6017 52.5619 52.3946 52.5706H62.5949V62.451C62.6124 76.2433 73.7986 87.4146 87.5909 87.4146V32.3948C87.5909 29.7416 85.4402 27.5907 82.7868 27.5907V27.5903Z" fill="url(#paint0_linear_1609_109)"/>
<path d="M55.3726 55.1649H0C0 68.9696 11.1916 80.161 24.9962 80.161H35.2284V90.0089C35.2374 103.789 46.3968 114.963 60.1768 114.989V59.9686C60.1768 57.3156 58.0261 55.1649 55.3726 55.1649Z" fill="url(#paint1_linear_1609_109)"/>
</g>
</g>
<defs>
<linearGradient id="paint0_linear_1609_109" x1="86.4061" y1="27.6866" x2="62.8513" y2="51.9782" gradientUnits="userSpaceOnUse">
<stop stop-color="#0052CC"/>
<stop offset="0.18" stop-color="#0052CC"/>
<stop offset="1" stop-color="#2684FF"/>
</linearGradient>
<linearGradient id="paint1_linear_1609_109" x1="60.5771" y1="55.4369" x2="33.3392" y2="81.9223" gradientUnits="userSpaceOnUse">
<stop stop-color="#0052CC"/>
<stop offset="0.18" stop-color="#0052CC"/>
<stop offset="1" stop-color="#2684FF"/>
</linearGradient>
<clipPath id="clip0_1609_109">
<rect width="115" height="115" fill="white"/>
</clipPath>
</defs>
</svg>
