<svg width="133" height="120" viewBox="0 0 133 120" fill="none" xmlns="http://www.w3.org/2000/svg">
<path d="M4.31492 0.000355558C3.69322 -0.00769109 3.07731 0.120929 2.51041 0.377181C1.94352 0.633433 1.43939 1.01111 1.03343 1.48368C0.627465 1.95626 0.329503 2.51229 0.160464 3.11273C-0.0085746 3.71317 -0.0445926 4.34347 0.0549389 4.95936L18.1386 115.126C18.3639 116.474 19.0553 117.7 20.0915 118.587C21.1276 119.474 22.4422 119.967 23.8043 119.978H110.559C111.58 119.992 112.572 119.636 113.354 118.977C114.136 118.318 114.656 117.399 114.819 116.387L132.945 5.00211C133.045 4.38622 133.009 3.75592 132.84 3.15548C132.67 2.55504 132.373 1.99902 131.967 1.52644C131.561 1.05386 131.056 0.676184 130.49 0.419932C129.923 0.16368 129.307 0.0350599 128.685 0.0431066L4.31492 0.000355558ZM80.4621 79.6223H52.7722L45.2746 40.335H87.1716L80.4621 79.6223Z" fill="#2684FF"/>
<path d="M127.152 40.335H87.1716L80.4621 79.6223H52.7722L20.0769 118.589C21.1132 119.488 22.4344 119.988 23.8044 120H110.58C111.601 120.013 112.593 119.658 113.375 118.998C114.157 118.339 114.677 117.42 114.84 116.409L127.152 40.335Z" fill="url(#paint0_linear_1609_52)"/>
<defs>
<linearGradient id="paint0_linear_1609_52" x1="136.396" y1="51.3217" x2="70.1473" y2="102.866" gradientUnits="userSpaceOnUse">
<stop offset="0.18" stop-color="#0052CC"/>
<stop offset="1" stop-color="#2684FF"/>
</linearGradient>
</defs>
</svg>
