<?xml version="1.0" encoding="utf-8"?>
<svg width="90" height="90" viewBox="0 0 90 90" fill="none" xmlns="http://www.w3.org/2000/svg">
<g clip-path="url(#clip0_1586_63)">
<rect width="90" height="90" rx="15" fill="#594480"/>
<path d="M75 1.17647C78.6627 1.1881 82.172 2.64824 84.7619 5.23814C87.3518 7.82804 88.8119 11.3374 88.8235 15V75C88.8119 78.6627 87.3518 82.172 84.7619 84.7619C82.172 87.3518 78.6627 88.8119 75 88.8235H15C11.3374 88.8119 7.82804 87.3518 5.23814 84.7619C2.64824 82.172 1.1881 78.6627 1.17647 75V15C1.1881 11.3374 2.64824 7.82804 5.23814 5.23814C7.82804 2.64824 11.3374 1.1881 15 1.17647H75ZM75 0H15C6.75 0 0 6.75 0 15V75C0 83.25 6.75 90 15 90H75C83.25 90 90 83.25 90 75V15C90 6.75 83.25 0 75 0Z" fill="white"/>
<path fill-rule="evenodd" clip-rule="evenodd" d="M27.9368 21.7103V70.3382H47.1338C52.2447 70.3382 56.4483 69.0815 59.3923 66.6418C62.361 64.1817 63.9353 60.6116 63.9353 56.25C63.9353 52.9223 62.8395 50.0103 60.8484 47.8189C59.4764 46.3089 57.7045 45.1684 55.6303 44.465C59.1446 42.5449 61.5765 38.5427 61.5765 34.3426C61.5765 30.5769 60.1106 27.3882 57.5332 25.1536C54.9684 22.93 51.3745 21.7103 47.1941 21.7103H27.9368ZM53.6227 61.3119C52.0708 62.5077 49.6506 63.2 46.2559 63.2L35.7529 63.204V48.822H45.7074C49.3275 48.822 51.8924 49.4972 53.5298 50.6818C55.1099 51.825 55.9515 53.534 55.9515 55.9647C55.9515 58.4109 55.13 60.1505 53.6227 61.3119ZM44.0588 41.8088H35.7529V28.8412H45.8662C48.5624 28.8412 50.5119 29.4516 51.7695 30.4718C52.9946 31.4657 53.6897 32.951 53.6897 35.0147C53.6897 37.2596 52.8738 38.8911 51.3639 39.9979C49.8056 41.1402 47.3903 41.8088 44.0588 41.8088Z" fill="white"/>
</g>
<defs>
<clipPath id="clip0_1586_63">
<rect width="90" height="90" fill="white"/>
</clipPath>
</defs>
</svg>
