<?xml version="1.0" encoding="UTF-8"?>
<svg width="90" height="90" viewBox="0 0 90 90" fill="none" xmlns="http://www.w3.org/2000/svg">
<g clip-path="url(#clip0_1586_53)">
<rect width="90" height="90" rx="15" fill="#7354AD"/>
<path d="M75 1.17647C78.6627 1.1881 82.172 2.64824 84.7619 5.23814C87.3518 7.82804 88.8119 11.3374 88.8235 15V75C88.8119 78.6627 87.3518 82.172 84.7619 84.7619C82.172 87.3518 78.6627 88.8119 75 88.8235H15C11.3374 88.8119 7.82804 87.3518 5.23814 84.7619C2.64824 82.172 1.1881 78.6627 1.17647 75V15C1.1881 11.3374 2.64824 7.82804 5.23814 5.23814C7.82804 2.64824 11.3374 1.1881 15 1.17647H75ZM75 0H15C6.75 0 0 6.75 0 15V75C0 83.25 6.75 90 15 90H75C83.25 90 90 83.25 90 75V15C90 6.75 83.25 0 75 0Z" fill="white"/>
<path d="M28.9368 69.3382V22.7103H47.1941C55.175 22.7103 60.5765 27.3632 60.5765 34.3426C60.5765 39.1956 57.0221 43.7132 52.5309 44.5206V44.7794C58.8647 45.5867 62.9353 50.047 62.9353 56.25C62.9353 64.4573 57.0529 69.3382 47.1338 69.3382H28.9368ZM34.7529 42.8088H44.0588C50.9412 42.8088 54.6897 40.0617 54.6897 35.0147C54.6897 30.3941 51.5235 27.8412 45.8662 27.8412H34.7529V42.8088ZM46.2559 64.2C53.2677 64.2 56.9515 61.3559 56.9515 55.9647C56.9515 50.5735 53.1382 47.822 45.7074 47.822H34.7529V64.2044L46.2559 64.2Z" fill="white"/>
</g>
<defs>
<clipPath id="clip0_1586_53">
<rect width="90" height="90" fill="white"/>
</clipPath>
</defs>
</svg>

