<svg width="148" height="178" viewBox="0 0 148 178" fill="none" xmlns="http://www.w3.org/2000/svg">
<title>Svelte</title>
<g clip-path="url(#clip0_1202_38)">
<path d="M138.234 23.4731C121.761 -0.104751 89.2236 -7.09336 65.6996 7.89445L24.3936 34.2269C18.8106 37.7371 14.0216 42.3739 10.3329 47.8407C6.6442 53.3075 4.13699 59.4839 2.97162 65.975C1.00134 76.9072 2.73379 88.1842 7.8947 98.0209C4.35775 103.385 1.94529 109.411 0.803127 115.735C-0.37346 122.356 -0.216213 129.145 1.26565 135.705C2.74751 142.264 5.52415 148.462 9.43276 153.934C25.9064 177.516 58.4449 184.506 81.9657 169.513L123.281 143.181C128.863 139.67 133.65 135.033 137.337 129.566C141.024 124.099 143.53 117.923 144.694 111.433C146.667 100.501 144.939 89.224 139.783 79.3851C143.318 74.0204 145.729 67.9951 146.87 61.6728C148.048 55.0518 147.892 48.2622 146.41 41.7024C144.929 35.1427 142.152 28.945 138.242 23.4731" fill="#FF3E00"/>
<path d="M61.6637 156.154C55.1619 157.844 48.2981 157.498 41.9992 155.163C35.7002 152.828 30.2695 148.616 26.4402 143.097C24.0901 139.806 22.4206 136.08 21.5295 132.136C20.6384 128.192 20.5438 124.11 21.2511 120.129C21.4904 118.822 21.8202 117.533 22.2379 116.272L23.0156 113.896L25.1334 115.45C30.0199 119.042 35.4841 121.775 41.2902 123.528L42.8251 123.994L42.6842 125.527C42.4977 127.706 43.0886 129.88 44.3521 131.665C45.5051 133.329 47.1412 134.599 49.0393 135.303C50.9373 136.007 53.0057 136.111 54.9649 135.601C55.8613 135.363 56.7159 134.989 57.4993 134.492L98.8132 108.157C99.8243 107.52 100.692 106.68 101.36 105.69C102.029 104.7 102.483 103.581 102.696 102.405C102.907 101.205 102.878 99.9748 102.61 98.7861C102.341 97.5973 101.838 96.474 101.131 95.4817C99.9774 93.8178 98.3414 92.5479 96.4435 91.8434C94.5457 91.139 92.4773 91.0338 90.5178 91.5422C89.6215 91.7808 88.7669 92.1547 87.9834 92.6511L72.2178 102.702C69.6233 104.35 66.7923 105.592 63.8226 106.386C57.3209 108.076 50.4571 107.73 44.158 105.396C37.859 103.061 32.4283 98.8488 28.5992 93.329C26.2484 90.039 24.5783 86.3127 23.687 82.3686C22.7956 78.4245 22.7009 74.3422 23.4085 70.361C24.1106 66.4578 25.6196 62.7441 27.839 59.4574C30.0584 56.1707 32.9393 53.3834 36.2975 51.2738L77.6161 24.943C80.21 23.2923 83.0411 22.0482 86.0113 21.2538C92.5131 19.5638 99.3768 19.9096 105.676 22.2446C111.975 24.5795 117.406 28.7911 121.235 34.3107C123.585 37.6009 125.255 41.3273 126.146 45.2713C127.038 49.2153 127.133 53.2976 126.425 57.2787C126.184 58.5854 125.854 59.8741 125.437 61.1358L124.659 63.5118L122.543 61.9611C117.657 58.3677 112.193 55.6356 106.386 53.8826L104.85 53.417L104.992 51.8836C105.178 49.7036 104.588 47.528 103.326 45.7409C102.173 44.0771 100.537 42.8074 98.6387 42.1035C96.7408 41.3995 94.6724 41.2952 92.7132 41.8047C91.8169 42.043 90.9622 42.4169 90.1788 42.9134L48.8538 69.2506C47.8429 69.8866 46.9758 70.7264 46.3078 71.7165C45.6399 72.7065 45.1858 73.825 44.9746 75.0005C44.7617 76.2007 44.7901 77.4313 45.0583 78.6204C45.3265 79.8095 45.829 80.9332 46.5364 81.9258C47.6898 83.5895 49.3258 84.8592 51.2236 85.5637C53.1215 86.2681 55.1897 86.3734 57.1492 85.8652C58.0454 85.6263 58.9 85.2524 59.6837 84.7564L75.4476 74.7107C78.041 73.0594 80.8723 71.8158 83.8428 71.0231C90.3443 69.333 97.2079 69.6787 103.507 72.0137C109.805 74.3487 115.236 78.5604 119.065 84.08C121.415 87.37 123.086 91.0963 123.977 95.0404C124.868 98.9845 124.963 103.067 124.255 107.048C123.555 110.951 122.047 114.665 119.83 117.953C117.613 121.241 114.734 124.03 111.377 126.142L70.0588 152.464C67.4651 154.115 64.6339 155.36 61.6637 156.154Z" fill="white"/>
</g>
<defs>
<clipPath id="clip0_1202_38">
<rect width="147.667" height="177.408" fill="white"/>
</clipPath>
</defs>
</svg>
